<?xml version="1.0" standalone="no"?>
<!DOCTYPE svg PUBLIC "-//W3C//DTD SVG 20010904//EN"
 "http://www.w3.org/TR/2001/REC-SVG-20010904/DTD/svg10.dtd">
<svg version="1.0" xmlns="http://www.w3.org/2000/svg"
 width="300.000000pt" height="300.000000pt" viewBox="0 0 300.000000 300.000000"
 preserveAspectRatio="xMidYMid meet">
<metadata>
Created by potrace 1.14, written by Peter Selinger 2001-2017
</metadata>
<g transform="translate(0.000000,300.000000) scale(0.100000,-0.100000)"
fill="#000000" stroke="none">
<path d="M783 2857 c1 -7 -3 -11 -10 -10 -7 2 -10 -4 -7 -12 4 -8 1 -15 -7
-15 -7 0 -9 -3 -6 -6 4 -4 14 -1 23 7 13 11 15 11 14 -2 -4 -26 0 -36 14 -36
8 0 11 8 8 20 -3 13 -1 18 6 14 16 -11 8 -40 -14 -47 -18 -7 -18 -8 4 -14 23
-8 32 -28 10 -22 -7 1 -10 1 -5 -1 4 -3 4 -10 0 -16 -4 -8 -1 -8 9 1 12 10 17
10 26 0 6 -7 10 -16 9 -20 -1 -4 6 -16 15 -27 12 -14 13 -21 5 -24 -8 -2 -7
-9 4 -20 9 -9 19 -14 22 -11 3 3 3 -5 0 -18 -5 -19 -4 -21 8 -11 12 10 15 8
15 -7 0 -10 -3 -17 -6 -15 -4 2 -7 -2 -7 -9 0 -8 8 -11 20 -8 16 4 19 2 13
-13 -4 -11 -1 -22 6 -27 8 -5 1 -7 -17 -3 -16 3 -24 2 -17 -1 6 -3 12 -13 12
-22 0 -13 -2 -14 -9 -4 -7 12 -19 -18 -25 -63 -1 -5 -11 -10 -23 -9 -20 0 -24
-10 -10 -32 4 -7 0 -11 -11 -10 -11 0 -18 -7 -20 -21 -2 -13 -8 -23 -13 -23
-5 0 -9 -7 -9 -16 0 -8 -4 -12 -10 -9 -5 3 -7 0 -4 -8 3 -8 -1 -17 -10 -20 -8
-3 -13 -16 -12 -30 2 -17 -1 -24 -9 -20 -7 2 -16 -1 -20 -6 -3 -6 -11 -8 -17
-5 -7 4 -8 2 -4 -5 6 -8 12 -9 20 -2 9 8 13 7 13 -4 0 -8 -4 -12 -9 -9 -4 3
-8 1 -8 -5 0 -6 -8 -7 -17 -4 -15 6 -16 4 -5 -9 9 -11 10 -18 2 -23 -6 -3 -8
-10 -5 -15 3 -4 -2 -13 -10 -20 -8 -7 -12 -17 -9 -22 4 -6 -4 -4 -17 3 -22 11
-23 11 -10 -4 9 -12 10 -17 2 -17 -7 0 -10 -4 -7 -9 3 -5 -1 -11 -9 -15 -8 -3
-12 -12 -9 -21 3 -8 1 -15 -5 -15 -6 0 -11 5 -11 11 0 5 -5 7 -11 3 -8 -5 -6
-10 5 -16 14 -8 15 -13 5 -24 -6 -8 -19 -14 -28 -14 -14 0 -14 -2 -1 -10 13
-8 12 -10 -2 -10 -10 0 -18 -5 -18 -11 0 -5 5 -7 12 -3 7 4 8 3 4 -5 -5 -8
-12 -9 -20 -2 -8 7 -12 5 -12 -9 0 -10 4 -17 7 -14 4 2 11 -1 15 -7 4 -8 3 -9
-4 -5 -6 4 -17 -2 -24 -13 -10 -16 -15 -18 -27 -8 -12 10 -13 9 -3 -10 15 -27
15 -36 2 -28 -9 6 -14 -8 -11 -28 1 -5 -3 -6 -8 -3 -11 7 -23 -22 -14 -36 3
-7 1 -8 -6 -4 -17 11 -40 -12 -34 -34 5 -18 -4 -25 -28 -22 -4 1 -5 -7 -2 -18
3 -12 -3 -29 -16 -42 -12 -13 -23 -27 -23 -33 0 -5 -9 -16 -20 -23 -16 -12
-17 -16 -6 -30 8 -10 9 -13 1 -9 -7 4 -14 -1 -18 -13 -3 -11 -11 -20 -17 -20
-7 0 -6 5 1 14 9 11 9 16 -1 22 -7 4 -10 4 -6 -1 4 -4 3 -14 -3 -22 -6 -7 -8
-13 -4 -13 4 0 2 -6 -4 -14 -9 -11 -9 -16 0 -22 8 -5 9 -3 4 6 -5 9 -4 11 4 6
6 -4 9 -12 5 -17 -3 -5 -10 -6 -16 -3 -8 5 -9 1 -5 -10 5 -12 2 -16 -10 -14
-9 2 -18 -3 -20 -9 -3 -7 0 -13 7 -13 6 0 8 5 4 12 -4 7 -3 8 4 4 14 -8 4 -37
-12 -35 -26 3 -35 -2 -30 -16 4 -8 10 -13 14 -10 5 3 11 1 14 -4 11 -17 -12
-22 -27 -7 -13 13 -14 12 -14 -8 0 -18 5 -23 29 -23 16 0 24 4 17 7 -8 6 -8 9
1 15 6 4 9 13 6 21 -3 7 -1 16 4 19 4 3 11 -1 13 -7 4 -10 6 -10 6 -1 1 7 8
10 19 7 14 -5 14 -4 2 4 -8 6 -19 8 -25 5 -5 -4 -2 3 8 14 9 11 14 23 10 28
-5 4 -2 5 5 1 11 -6 11 -11 0 -24 -12 -15 -11 -16 5 -3 10 8 16 20 13 28 -4 8
2 13 15 13 17 0 20 5 16 21 -5 17 -3 18 10 7 15 -12 15 -10 3 12 -13 24 -12
24 5 10 10 -8 16 -10 12 -3 -4 7 1 14 13 18 18 6 25 24 21 49 -1 5 5 4 13 -3
12 -10 14 -9 12 6 -2 11 7 23 23 31 14 7 18 10 9 8 -10 -3 -20 -1 -23 4 -4 6
1 10 9 10 9 0 16 5 16 10 0 6 6 10 13 10 7 0 24 14 36 31 13 18 17 29 10 25
-8 -4 -5 -1 5 8 10 8 22 13 26 11 4 -2 7 2 7 10 0 12 -3 12 -16 2 -14 -11 -14
-10 -2 6 8 10 20 16 28 13 8 -3 11 -1 8 4 -3 6 -1 10 5 10 6 0 8 5 5 10 -4 6
-11 7 -17 4 -7 -4 -8 -2 -4 5 5 7 16 9 28 5 17 -5 20 -3 15 10 -6 14 -3 16 16
11 12 -3 18 -3 12 2 -17 14 -17 36 -1 30 9 -4 18 -1 22 5 4 7 3 8 -4 4 -7 -4
-12 -2 -12 3 0 6 4 11 10 11 5 0 9 3 7 8 -3 10 42 67 48 60 3 -2 -5 -15 -17
-28 -12 -12 -15 -21 -8 -18 7 2 21 18 30 36 10 17 21 28 26 24 4 -4 3 0 -4 10
-10 12 -10 18 -1 24 8 4 9 3 5 -4 -4 -7 -2 -12 3 -12 6 0 11 7 11 16 0 10 6
14 15 10 8 -3 14 -2 14 2 -3 18 2 35 8 29 11 -11 32 14 26 30 -5 12 -2 15 9
11 8 -4 15 -1 15 7 0 8 -7 11 -16 8 -9 -3 -1 6 18 20 19 15 38 24 42 21 5 -3
9 0 9 5 0 6 -4 11 -8 11 -5 0 -9 7 -9 14 0 11 5 13 19 5 10 -5 18 -6 17 -2 -1
4 -1 17 0 28 1 17 3 18 12 5 9 -12 10 -11 6 7 -5 20 -3 22 16 12 18 -9 20 -9
10 2 -10 10 -7 16 15 31 30 20 23 24 -11 7 -19 -9 -20 -8 -7 3 8 8 21 20 29
28 8 8 11 10 8 4 -4 -7 -1 -14 7 -17 8 -3 13 1 12 11 -1 12 7 17 26 17 15 1
25 -2 22 -6 -2 -4 0 -11 6 -14 8 -5 8 -11 0 -20 -8 -10 -8 -15 0 -20 8 -5 7
-12 -2 -23 -12 -15 -11 -16 5 -3 14 11 15 16 5 30 -12 14 -11 15 5 2 11 -9 16
-22 13 -34 -3 -13 1 -21 15 -24 18 -5 19 -6 2 -19 -17 -13 -17 -14 1 -7 13 4
17 3 12 -5 -4 -7 -3 -12 3 -12 5 0 12 6 15 13 3 6 3 1 0 -12 -4 -17 -3 -21 6
-16 9 6 9 1 -1 -16 -11 -22 -11 -23 5 -10 14 12 16 12 10 -3 -4 -9 -3 -16 2
-15 23 4 25 -3 8 -23 -10 -12 -13 -18 -7 -14 8 4 17 -2 25 -18 6 -14 18 -26
26 -26 9 0 12 -3 9 -7 -4 -3 3 -13 15 -21 20 -15 20 -16 2 -30 -16 -13 -17
-14 -1 -9 9 4 17 2 17 -4 0 -6 6 -7 13 -3 8 5 8 2 -2 -9 -11 -14 -11 -17 0
-18 8 -1 18 0 24 1 5 1 7 -2 2 -6 -4 -4 0 -19 9 -32 14 -21 14 -24 2 -20 -8 4
-15 0 -15 -7 0 -8 8 -12 20 -10 16 4 17 2 5 -12 -12 -15 -11 -15 8 -5 20 11
22 9 20 -18 -2 -23 2 -30 16 -30 10 0 18 -5 18 -11 0 -5 -4 -8 -8 -5 -4 2 -14
0 -22 -6 -13 -8 -12 -9 2 -5 17 6 42 -15 31 -26 -3 -4 -1 -7 5 -7 7 0 12 -5
12 -11 0 -6 7 -17 15 -25 8 -8 11 -22 8 -32 -6 -15 -5 -16 12 -2 10 8 16 10
12 3 -4 -6 -3 -14 3 -18 5 -3 10 -17 10 -31 0 -15 6 -24 16 -24 10 0 14 -6 10
-15 -3 -8 -1 -15 4 -15 6 0 10 -7 10 -16 0 -9 5 -12 13 -8 7 5 6 0 -3 -11 -12
-15 -12 -17 -1 -10 11 6 13 4 7 -10 -6 -16 -4 -16 11 -4 10 7 15 9 10 4 -4 -4
0 -16 9 -26 10 -11 12 -19 5 -24 -6 -3 -11 -11 -11 -17 0 -6 7 -5 18 3 9 7 14
9 10 5 -4 -5 0 -15 10 -23 9 -8 12 -12 5 -9 -6 4 -15 2 -18 -4 -4 -6 -3 -10 2
-9 26 5 35 -3 31 -26 -4 -17 -1 -25 8 -25 8 0 14 -5 14 -11 0 -5 6 -7 13 -3 9
6 9 5 0 -7 -10 -12 -8 -17 8 -27 10 -7 19 -22 19 -33 0 -12 11 -30 25 -41 14
-11 23 -24 20 -29 -4 -5 -1 -9 6 -9 8 0 7 -5 -2 -17 -10 -11 -10 -14 -1 -9 7
4 12 2 12 -4 0 -6 5 -8 13 -4 7 5 6 0 -3 -11 -8 -10 -10 -16 -5 -13 6 4 21 -2
35 -12 21 -16 22 -20 10 -36 -13 -15 -13 -16 -1 -9 11 6 13 4 7 -10 -6 -16 -4
-16 10 -4 16 13 16 12 6 -7 -7 -14 -7 -25 0 -35 8 -11 9 -10 4 6 -5 16 -3 16
14 -5 11 -14 20 -29 20 -33 0 -5 5 -5 12 -1 7 4 8 3 4 -5 -4 -6 -12 -9 -17 -6
-5 4 -9 1 -9 -6 0 -6 8 -9 20 -6 11 3 18 1 15 -3 -3 -5 -1 -11 4 -15 6 -3 7
-13 4 -22 -5 -12 -3 -14 8 -8 12 7 12 6 1 -7 -9 -11 -10 -18 -2 -23 6 -3 8
-10 5 -14 -2 -5 5 -8 17 -7 12 0 23 -6 25 -14 4 -13 3 -13 -7 0 -10 13 -11 12
-6 -3 3 -10 6 -23 6 -28 0 -5 5 -9 11 -9 5 0 7 5 4 10 -3 6 -1 10 4 10 15 0
14 -13 -1 -29 -8 -9 -8 -11 -2 -8 7 4 15 0 18 -9 3 -8 11 -12 17 -8 8 5 9 3 4
-6 -4 -7 -2 -16 6 -22 11 -8 10 -9 -3 -4 -10 3 -18 1 -18 -4 0 -6 6 -10 14
-10 19 0 48 -29 41 -41 -4 -5 0 -9 7 -9 10 0 10 -2 0 -8 -9 -6 -7 -13 8 -30
20 -21 27 -37 12 -28 -5 3 -9 -2 -9 -10 0 -10 4 -11 11 -4 13 13 29 13 21 0
-3 -5 -2 -10 3 -10 6 0 8 -9 5 -20 -3 -12 0 -20 6 -20 7 0 9 5 5 13 -5 8 -2 8
9 -2 18 -14 23 -26 8 -16 -5 3 -12 1 -16 -5 -3 -5 -1 -10 5 -10 6 0 8 -5 4
-12 -5 -8 0 -7 11 2 17 14 18 13 12 -2 -4 -10 -2 -18 5 -18 6 0 5 -6 -3 -17
-12 -14 -12 -16 0 -8 11 6 13 4 8 -8 -3 -10 -2 -17 2 -17 5 0 12 6 14 13 3 7
6 4 6 -6 1 -12 6 -16 14 -11 10 6 10 4 0 -7 -16 -17 -17 -33 -1 -23 7 5 9 2 5
-9 -4 -12 -2 -14 10 -10 13 5 13 3 5 -14 -9 -15 -8 -20 3 -20 8 0 12 4 9 8 -2
4 0 10 5 13 10 7 9 -20 -2 -30 -4 -4 -7 -12 -7 -18 0 -6 4 -5 9 3 5 7 14 10
20 6 9 -5 9 -10 1 -20 -8 -10 -8 -15 0 -20 6 -4 9 -14 5 -22 -4 -13 -3 -14 10
-3 12 10 15 10 15 -3 0 -8 5 -17 12 -19 6 -2 12 -12 14 -21 1 -10 -2 -15 -9
-11 -7 3 -4 -1 6 -9 10 -9 18 -18 18 -21 -2 -19 0 -26 10 -26 8 0 8 5 -1 15
-9 10 -9 15 -1 15 11 0 15 -13 12 -39 -2 -7 2 -10 8 -6 7 3 11 -2 11 -14 0
-17 4 -18 29 -11 25 7 29 6 23 -8 -5 -15 -4 -15 11 -3 9 7 17 9 17 4 0 -5 7
-10 15 -10 12 0 12 3 2 15 -10 13 -9 14 8 5 11 -5 32 -8 48 -7 19 2 25 -1 20
-9 -4 -7 1 -5 11 3 21 16 49 23 40 9 -3 -5 -10 -7 -15 -4 -5 4 -9 1 -9 -5 0
-7 7 -9 15 -6 8 3 22 9 32 13 12 5 14 3 8 -8 -5 -8 2 -5 14 5 15 14 20 15 16
5 -9 -24 86 -19 116 6 13 11 18 13 12 5 -17 -18 -16 -27 2 -27 8 0 12 4 9 9
-3 4 0 8 5 8 6 0 11 -5 11 -11 0 -5 5 -7 10 -4 6 4 7 12 4 18 -5 9 -4 9 6 0 7
-6 19 -9 28 -6 11 5 13 3 7 -7 -5 -8 -4 -11 3 -6 6 3 13 2 17 -4 4 -6 11 -8
16 -4 5 3 7 10 3 15 -3 5 -10 6 -16 3 -7 -4 -8 -2 -4 4 5 8 13 9 25 3 13 -7
18 -6 18 4 0 8 -4 12 -9 9 -4 -3 -8 4 -8 16 0 14 -4 19 -12 14 -10 -6 -10 -5
-1 8 17 19 4 32 -15 15 -13 -9 -14 -9 -8 1 4 6 3 12 -2 12 -6 0 -15 14 -21 30
-5 17 -13 30 -16 30 -3 0 -3 -5 1 -12 4 -7 3 -8 -4 -4 -6 4 -8 14 -5 23 4 11
3 14 -5 9 -8 -5 -10 -2 -6 8 7 19 -12 22 -20 4 -3 -7 -4 -1 -2 14 2 18 -4 34
-15 44 -10 9 -16 21 -12 27 3 6 1 7 -6 3 -9 -6 -9 -11 0 -22 6 -8 7 -14 2 -14
-11 0 -44 55 -37 62 2 3 -2 11 -11 18 -13 11 -15 10 -10 -6 5 -13 2 -12 -7 4
-8 12 -18 19 -23 15 -4 -4 -5 -3 -2 4 4 6 4 13 0 16 -5 2 -2 2 5 1 20 -5 14
14 -10 30 -12 8 -26 12 -32 9 -6 -4 -4 2 4 12 9 11 10 16 3 11 -8 -4 -13 -2
-13 4 0 6 -5 8 -12 4 -8 -5 -7 0 2 11 9 11 10 16 3 11 -7 -4 -13 -2 -13 3 0 6
-5 11 -11 11 -5 0 -7 -6 -3 -12 5 -9 2 -9 -9 1 -18 15 -23 26 -7 16 6 -3 10
-1 10 4 0 6 -4 11 -10 11 -5 0 -10 5 -10 11 0 5 6 7 13 3 6 -4 4 2 -6 13 -9
11 -14 23 -10 28 5 4 2 5 -5 1 -10 -6 -10 -11 -1 -22 15 -18 2 -18 -16 0 -9 8
-10 17 -4 25 5 6 6 9 3 7 -7 -5 -54 35 -54 46 0 5 5 6 12 2 7 -4 8 -3 4 5 -6
9 -11 9 -24 -1 -14 -12 -14 -10 -3 11 7 13 9 21 4 18 -10 -6 -34 19 -25 27 3
4 -2 4 -13 0 -18 -7 -19 -6 -5 11 9 11 10 16 3 11 -8 -4 -13 -1 -13 8 0 9 -4
16 -10 16 -5 0 -7 -8 -4 -17 5 -14 4 -15 -4 -4 -6 8 -8 21 -4 29 4 11 1 14
-11 9 -14 -5 -15 -2 -7 21 10 25 9 26 -5 8 -15 -19 -15 -19 -15 3 0 13 -4 20
-11 16 -6 -4 -10 -1 -8 6 3 27 -1 40 -12 33 -8 -4 -7 -9 2 -16 11 -8 11 -9 -1
-5 -8 2 -14 13 -14 25 1 12 -1 21 -5 20 -14 -3 -40 15 -35 23 3 5 0 9 -5 9 -6
0 -11 7 -11 16 0 9 -5 12 -12 8 -8 -5 -7 0 2 11 9 11 10 16 3 11 -7 -4 -13 -2
-13 3 0 6 -10 11 -22 12 -22 1 -22 1 2 9 l25 8 -25 1 c-18 1 -21 4 -11 10 11
7 9 10 -8 16 -11 3 -21 13 -21 21 0 8 -8 14 -17 14 -15 0 -16 2 -3 10 13 8 12
10 -4 10 -13 0 -17 5 -13 19 4 15 0 18 -18 16 -16 -1 -22 2 -18 11 3 8 10 11
16 7 5 -3 7 -1 3 5 -3 5 0 13 6 16 7 3 3 3 -9 0 -15 -3 -21 -1 -19 10 1 9 6
19 11 23 4 4 5 2 0 -6 -6 -10 -4 -12 4 -7 9 6 9 11 0 22 -6 7 -16 11 -22 7 -6
-4 -7 -1 -3 6 5 7 15 10 23 7 8 -3 11 -1 8 4 -3 6 -3 16 2 23 13 20 12 34 -3
34 -8 0 -14 -4 -14 -9 0 -4 5 -8 11 -8 5 0 7 -4 4 -10 -10 -17 -22 -11 -21 10
0 11 9 29 18 40 18 21 11 29 -9 9 -8 -8 -13 -7 -18 2 -5 8 -4 10 3 5 12 -7 16
5 13 33 -2 7 2 10 8 7 5 -4 13 -1 17 5 4 8 3 9 -4 5 -7 -4 -12 -2 -12 4 0 6
-4 9 -8 6 -9 -6 -10 39 0 49 3 3 5 -1 5 -11 -1 -9 5 -19 13 -21 9 -3 11 -1 5
4 -13 10 -17 56 -5 48 5 -3 12 0 16 6 4 7 3 9 -4 5 -17 -10 -24 11 -11 35 8
15 8 19 0 15 -14 -9 -14 0 -2 23 7 13 6 18 -4 18 -8 0 -11 -7 -7 -16 3 -9 2
-13 -2 -10 -4 4 -8 16 -11 27 -2 14 1 19 10 16 16 -6 30 12 16 21 -6 3 -8 11
-5 18 2 7 -4 24 -16 37 -24 27 -26 38 -5 20 9 -7 17 -11 20 -8 2 2 -10 12 -27
22 -17 11 -28 13 -23 6 5 -8 3 -11 -6 -8 -8 3 -13 11 -11 17 1 7 -2 10 -8 6
-6 -3 -8 -11 -5 -16 8 -12 -28 2 -37 15 -5 7 -8 7 -8 -2 0 -7 -4 -10 -10 -7
-5 3 -10 1 -10 -5 0 -7 7 -10 15 -7 8 4 17 3 19 -2 10 -15 -29 -8 -56 11 -25
17 -47 11 -34 -11 7 -11 -13 -9 -32 2 -7 5 -9 13 -6 19 4 7 2 8 -5 4 -6 -4 -8
-12 -5 -18 4 -6 -1 -8 -15 -3 -14 4 -23 1 -27 -9 -3 -9 -10 -16 -16 -16 -5 0
-6 5 -2 12 4 7 3 8 -5 4 -6 -4 -9 -12 -6 -17 4 -5 0 -9 -7 -9 -7 -1 -2 -7 12
-15 14 -8 19 -14 12 -15 -9 0 -10 -5 -3 -18 17 -31 -6 -43 -45 -24 -28 13 -32
18 -21 31 9 12 9 13 0 7 -8 -4 -13 -2 -13 4 0 6 -5 8 -12 4 -9 -6 -9 -3 0 9
12 14 11 16 -7 12 -15 -3 -19 0 -14 8 15 24 11 35 -13 32 -18 -2 -22 1 -14 10
7 9 6 16 -5 25 -8 7 -12 16 -9 21 3 5 -2 6 -10 3 -11 -4 -16 0 -16 11 0 9 -5
13 -10 10 -5 -3 -10 1 -10 9 0 9 -4 16 -10 16 -5 0 -10 10 -10 23 0 17 -2 19
-9 7 -6 -8 -7 -18 -4 -24 3 -5 1 -6 -4 -3 -6 4 -8 18 -5 32 2 15 0 25 -7 25
-7 0 -10 -4 -7 -8 3 -5 -1 -9 -9 -9 -11 0 -12 3 -3 14 9 11 6 17 -10 29 -12 8
-22 21 -22 27 0 7 4 6 10 -3 5 -8 10 -10 10 -4 0 6 -8 18 -17 25 -11 10 -14
10 -9 2 4 -7 2 -13 -3 -13 -6 0 -11 7 -11 16 0 9 -5 12 -12 8 -8 -5 -7 0 2 11
10 12 10 16 2 11 -18 -11 -42 12 -35 31 5 12 3 14 -7 8 -10 -6 -12 -4 -7 9 5
11 3 15 -5 10 -8 -5 -9 -1 -4 12 4 10 4 16 1 13 -11 -12 -78 59 -69 73 6 10 4
10 -9 -1 -15 -12 -17 -12 -11 3 3 9 1 16 -6 16 -6 0 -8 5 -5 10 3 6 2 10 -3
10 -5 0 -12 9 -15 20 -3 11 -11 20 -19 20 -10 0 -9 -3 2 -11 13 -9 13 -10 0
-6 -8 2 -15 8 -15 13 0 5 -4 16 -9 24 -7 12 -6 13 5 3 7 -7 18 -13 23 -13 6 0
0 7 -12 16 -12 8 -26 13 -31 9 -5 -3 -13 0 -17 6 -4 8 -3 9 4 5 7 -4 12 -3 12
1 0 5 -9 14 -20 21 -11 7 -20 22 -20 35 0 18 -2 19 -10 7 -8 -12 -10 -9 -10
11 0 31 -23 54 -42 43 -11 -6 -11 -5 0 8 10 13 10 18 1 24 -8 4 -9 3 -5 -4 4
-7 2 -12 -3 -12 -6 0 -11 8 -11 18 0 9 -5 24 -11 32 -9 12 -10 11 -5 -5 l6
-20 -15 20 c-9 11 -14 28 -11 38 4 15 2 16 -10 6 -11 -9 -14 -9 -14 0 0 7 -5
9 -12 5 -6 -4 -8 -3 -5 3 4 6 0 16 -8 23 -12 10 -13 16 -3 28 11 13 9 14 -12
7 -23 -7 -24 -7 -10 10 9 11 10 16 3 11 -7 -4 -13 -3 -13 2 0 5 -10 14 -22 21
-13 6 -15 9 -6 7 12 -3 15 -1 11 9 -3 8 -9 12 -14 9 -5 -3 -9 0 -9 6 0 6 -5 8
-12 4 -8 -5 -8 -2 1 10 12 15 12 17 0 14 -8 -2 -13 3 -12 10 3 11 -17 17 -40
13 -5 -1 -6 3 -2 9 3 5 1 10 -6 10 -7 0 -9 3 -6 6 4 4 13 1 22 -6 8 -7 15 -8
15 -2 0 5 -7 13 -16 16 -8 3 -12 11 -9 16 4 6 1 9 -6 8 -7 -2 -13 4 -14 12 0
8 -7 14 -14 12 -8 -2 -11 3 -8 12 3 8 -1 20 -8 26 -8 7 -12 17 -8 23 3 5 1 7
-4 4 -6 -4 -16 0 -23 8 -7 8 -16 12 -21 9 -5 -3 -9 -1 -9 5 0 5 5 11 12 13 8
3 6 7 -5 11 -10 4 -16 2 -14 -6z m68 -85 c-9 -3 -9 -7 0 -18 6 -8 16 -11 23
-7 6 3 8 3 4 -2 -4 -4 -3 -14 3 -22 6 -7 7 -13 3 -13 -14 0 -48 49 -49 70 -1
16 1 17 13 8 10 -9 11 -13 3 -16z m324 -411 c3 -5 2 -12 -3 -15 -5 -3 -9 1 -9
9 0 17 3 19 12 6z m220 -290 c3 -5 2 -12 -3 -15 -5 -3 -9 1 -9 9 0 17 3 19 12
6z m-157 -26 c6 -14 10 -25 8 -25 -2 0 -11 11 -20 25 -9 14 -13 25 -8 25 5 0
14 -11 20 -25z m-388 9 c0 -8 -19 -13 -24 -6 -3 5 1 9 9 9 8 0 15 -2 15 -3z
m-365 -304 c3 -5 -1 -10 -10 -10 -9 0 -13 5 -10 10 3 6 8 10 10 10 2 0 7 -4
10 -10z m1455 -45 c7 -9 8 -15 2 -15 -5 0 -12 7 -16 15 -3 8 -4 15 -2 15 2 0
9 -7 16 -15z m-246 -13 c3 -5 -1 -9 -9 -9 -8 0 -12 4 -9 9 3 4 7 8 9 8 2 0 6
-4 9 -8z m416 -53 c0 -5 -4 -9 -8 -9 -5 0 -9 7 -9 15 0 8 4 12 9 9 4 -3 8 -9
8 -15z m-1720 -53 c0 -3 -4 -8 -10 -11 -5 -3 -10 -1 -10 4 0 6 5 11 10 11 6 0
10 -2 10 -4z m1715 -57 c11 -16 1 -19 -13 -3 -7 8 -8 14 -3 14 5 0 13 -5 16
-11z m5 -43 c0 -3 -4 -8 -10 -11 -5 -3 -10 -1 -10 4 0 6 5 11 10 11 6 0 10 -2
10 -4z m-185 -624 c-3 -3 -11 0 -18 7 -9 10 -8 11 6 5 10 -3 15 -9 12 -12z
m145 -222 c0 -5 -5 -10 -11 -10 -5 0 -7 5 -4 10 3 6 8 10 11 10 2 0 4 -4 4
-10z m577 -176 c-3 -3 -12 -4 -19 -1 -8 3 -5 6 6 6 11 1 17 -2 13 -5z m118
-144 c3 -5 1 -10 -4 -10 -6 0 -11 5 -11 10 0 6 2 10 4 10 3 0 8 -4 11 -10z
m-42 -203 c3 -9 -4 -13 -23 -13 -16 0 -27 3 -24 7 2 5 11 6 19 2 8 -3 15 0 15
6 0 15 7 14 13 -2z"/>
<path d="M850 2665 c0 -8 4 -15 10 -15 5 0 7 7 4 15 -4 8 -8 15 -10 15 -2 0
-4 -7 -4 -15z"/>
<path d="M877 2433 c-10 -9 -9 -23 1 -23 5 0 9 7 9 15 0 17 -1 18 -10 8z"/>
<path d="M1070 2286 c0 -2 7 -7 16 -10 8 -3 12 -2 9 4 -6 10 -25 14 -25 6z"/>
<path d="M703 2148 c-4 -7 -8 -17 -8 -23 -1 -5 -7 -9 -14 -7 -7 1 -10 -2 -6
-8 5 -8 11 -7 21 1 8 6 12 14 9 17 -3 3 0 11 6 19 6 7 9 13 6 13 -3 0 -9 -6
-14 -12z"/>
<path d="M1367 2109 c7 -7 15 -10 18 -7 3 3 -2 9 -12 12 -14 6 -15 5 -6 -5z"/>
<path d="M1455 2001 c-3 -5 -2 -12 3 -15 5 -3 9 1 9 9 0 17 -3 19 -12 6z"/>
<path d="M605 1990 c-3 -6 1 -7 9 -4 18 7 21 14 7 14 -6 0 -13 -4 -16 -10z"/>
<path d="M1256 1972 c-3 -5 1 -9 9 -9 8 0 12 4 9 9 -3 4 -7 8 -9 8 -2 0 -6 -4
-9 -8z"/>
<path d="M1784 1625 c2 -16 7 -28 12 -26 10 3 8 16 -6 41 -6 10 -8 6 -6 -15z"/>
<path d="M1755 1620 c-3 -5 -1 -10 4 -10 6 0 11 5 11 10 0 6 -2 10 -4 10 -3 0
-8 -4 -11 -10z"/>
<path d="M1471 1604 c0 -11 3 -14 6 -6 3 7 2 16 -1 19 -3 4 -6 -2 -5 -13z"/>
<path d="M275 1480 c-3 -5 -1 -10 4 -10 6 0 11 5 11 10 0 6 -2 10 -4 10 -3 0
-8 -4 -11 -10z"/>
<path d="M1557 1449 c7 -7 15 -10 18 -7 3 3 -2 9 -12 12 -14 6 -15 5 -6 -5z"/>
<path d="M210 1320 c0 -5 5 -10 10 -10 6 0 10 5 10 10 0 6 -4 10 -10 10 -5 0
-10 -4 -10 -10z"/>
<path d="M679 1295 c-1 -3 -2 -9 -3 -14 0 -5 -5 -13 -9 -18 -5 -4 -7 -1 -5 7
2 10 -5 15 -22 15 -27 0 -55 -38 -43 -59 4 -7 2 -7 -7 1 -11 10 -11 15 0 28
10 12 11 18 1 28 -10 9 -11 8 -5 -7 5 -12 4 -17 -2 -13 -6 3 -10 -7 -10 -24 0
-16 4 -29 8 -29 5 0 6 -5 3 -10 -4 -6 -10 -8 -14 -6 -4 3 -8 -1 -8 -9 0 -8 4
-12 8 -10 3 3 9 -7 12 -20 2 -14 0 -28 -6 -32 -5 -3 -3 -9 6 -15 17 -9 13 -38
-5 -38 -6 0 -5 6 2 15 7 9 8 15 2 15 -12 0 -23 -26 -14 -35 4 -4 7 -12 7 -18
1 -7 7 -11 15 -9 10 2 11 0 2 -11 -7 -8 -8 -18 -4 -22 4 -5 1 -5 -6 -1 -7 4
-9 12 -6 18 4 7 2 8 -4 4 -13 -8 -5 -36 11 -36 6 0 2 -6 -9 -14 -13 -10 -15
-14 -4 -13 8 1 16 -2 17 -8 1 -5 -5 -9 -13 -7 -8 2 -4 -8 11 -24 14 -15 22
-30 20 -35 -3 -4 -1 -10 4 -13 5 -3 12 1 15 10 6 17 26 10 26 -9 0 -7 -4 -6
-10 3 -5 8 -10 11 -10 5 0 -5 4 -16 9 -24 7 -11 10 -9 16 8 4 13 9 20 12 17 4
-3 12 -1 20 6 10 8 12 8 8 -4 -4 -9 0 -18 9 -21 10 -4 13 -1 9 9 -7 18 4 18
23 -1 18 -17 34 -20 34 -4 0 5 -4 8 -9 4 -5 -3 -12 -1 -15 4 -4 5 -2 12 3 15
5 4 12 2 15 -2 6 -10 66 -10 82 0 6 4 11 1 11 -7 0 -8 -5 -11 -10 -8 -6 3 -7
1 -3 -5 4 -7 17 -8 35 -2 15 4 35 4 42 -1 26 -17 31 -9 8 12 -13 11 -19 18
-12 15 6 -4 13 -3 16 1 2 5 2 2 1 -4 -2 -7 1 -13 6 -13 6 0 10 5 10 11 0 6 8
8 18 5 16 -6 16 -5 0 8 -19 14 -25 32 -8 21 12 -7 14 8 3 19 -14 13 -9 31 11
42 19 11 19 12 -2 18 -19 7 -20 9 -7 22 14 15 11 44 -6 44 -5 0 -9 5 -9 11 0
5 6 7 13 3 8 -5 8 -2 -2 9 -16 20 -2 23 19 5 12 -11 12 -10 0 5 -11 15 -11 20
-1 26 10 6 9 10 -4 14 -9 4 -13 3 -10 -2 3 -5 2 -12 -3 -15 -4 -2 -8 6 -8 20
0 17 4 23 14 19 7 -3 10 0 7 6 -4 5 -1 17 6 25 7 8 8 14 3 13 -20 -3 -34 2
-34 12 0 6 6 9 13 6 8 -3 13 3 14 17 0 11 -1 15 -4 8 -7 -18 -23 -4 -23 21 0
17 -2 19 -9 7 -6 -8 -7 -19 -5 -25 3 -5 -3 -1 -13 10 -23 24 -53 35 -34 11 10
-12 9 -14 -8 -9 -12 3 -18 10 -14 17 4 6 -1 5 -10 -3 -13 -10 -20 -11 -30 -2
-8 6 -17 8 -20 4 -4 -3 -15 0 -24 8 -17 13 -17 13 -3 -5 13 -17 13 -19 0 -14
-8 3 -24 -2 -34 -11 -19 -16 -19 -15 0 14 13 20 14 26 4 19 -8 -6 -23 -10 -33
-9 -10 2 -14 -1 -11 -7 4 -6 1 -8 -7 -6 -8 3 -13 11 -11 17 2 10 -7 17 -9 6z
m-29 -26 c0 -5 -4 -7 -10 -4 -5 3 -10 1 -10 -6 0 -7 -3 -10 -6 -6 -8 7 4 27
17 27 5 0 9 -5 9 -11z m315 -218 c3 -5 2 -12 -3 -15 -5 -3 -9 1 -9 9 0 17 3
19 12 6z m-75 -162 c0 -5 -4 -9 -8 -9 -5 0 -9 7 -9 15 0 8 4 12 9 9 4 -3 8 -9
8 -15z"/>
<path d="M835 1290 c3 -5 8 -10 11 -10 2 0 4 5 4 10 0 6 -5 10 -11 10 -5 0 -7
-4 -4 -10z"/>
<path d="M1121 1283 c12 -15 12 -16 -7 -11 -19 5 -21 2 -17 -24 2 -17 1 -28
-4 -25 -4 3 -8 -10 -8 -28 0 -18 3 -31 7 -29 4 2 9 0 12 -5 3 -5 -1 -11 -9
-14 -10 -5 -12 -13 -5 -35 5 -18 4 -34 -2 -40 -6 -6 -6 -12 3 -17 8 -6 10 -4
4 5 -5 8 -4 11 3 6 13 -8 5 -36 -10 -36 -5 0 -6 -5 -3 -10 4 -6 11 -8 16 -5 5
3 6 -1 3 -9 -3 -9 -11 -13 -18 -9 -6 3 -6 1 2 -8 14 -16 16 -33 2 -24 -7 4 -7
-2 -1 -18 6 -14 7 -28 4 -31 -4 -3 -1 -6 5 -6 7 0 12 -4 12 -10 0 -5 -8 -7
-17 -4 -15 5 -15 4 -3 -4 9 -7 18 -7 26 -1 13 10 48 -16 40 -30 -3 -4 1 -8 9
-8 8 0 13 2 10 5 -2 3 0 14 6 24 8 15 14 17 22 9 9 -9 9 -14 -2 -20 -8 -6 -9
-11 -3 -15 6 -3 13 3 17 14 6 19 8 19 38 4 l32 -15 -25 21 -25 21 33 -16 c20
-10 30 -20 26 -28 -4 -7 5 -1 19 12 15 13 24 28 20 34 -3 6 -1 7 6 3 9 -6 9
-11 0 -22 -8 -10 -8 -14 0 -14 21 0 26 -2 40 -13 9 -8 8 -2 -3 16 -22 32 -15
36 13 6 l19 -21 12 22 c11 20 13 21 30 5 12 -11 20 -13 25 -6 3 6 3 11 -2 11
-4 0 -1 5 7 11 13 9 12 10 -2 5 -10 -3 -20 0 -24 6 -4 7 -3 8 4 4 7 -4 12 -2
12 4 0 6 4 9 9 6 10 -7 9 13 -2 31 -4 6 -1 14 5 16 10 4 10 6 1 6 -7 1 -13 6
-13 12 0 5 4 8 8 5 5 -3 9 1 9 9 0 8 -4 12 -9 9 -4 -3 -8 0 -8 5 0 6 4 11 10
11 11 0 9 28 -3 48 -5 7 -3 12 5 12 9 0 9 3 -2 10 -8 5 -11 10 -6 10 5 0 3 7
-4 15 -11 13 -10 14 6 8 17 -6 18 -5 4 12 -9 11 -10 16 -2 11 13 -8 13 19 -1
41 -4 6 -1 14 5 16 10 4 10 6 1 6 -7 1 -13 6 -13 12 0 5 4 8 9 5 15 -10 7 17
-13 44 -11 14 -16 18 -13 8 4 -12 1 -18 -8 -18 -8 0 -14 3 -14 8 4 21 -3 23
-21 7 -15 -14 -20 -15 -20 -4 -1 10 -3 9 -11 -3 -5 -9 -16 -15 -24 -12 -8 4
-12 11 -8 17 3 5 1 7 -5 3 -5 -3 -12 -3 -15 1 -2 5 -2 2 0 -5 1 -8 -3 -12 -9
-9 -7 2 -12 10 -10 16 1 7 -2 10 -8 6 -6 -3 -7 -11 -4 -17 5 -7 2 -8 -7 -2
-21 13 -33 11 -46 -6 -10 -13 -12 -13 -18 2 -4 10 -11 15 -16 12 -5 -3 -6 -11
-3 -17 4 -7 4 -9 -1 -5 -4 4 -15 2 -24 -5 -14 -10 -14 -10 -3 5 9 11 10 18 2
23 -5 3 -10 0 -10 -7 0 -9 -3 -9 -10 2 -7 11 -10 12 -10 2 0 -10 -4 -10 -16 2
-21 21 -30 20 -13 -1z m159 -7 c0 -2 -8 -10 -17 -17 -16 -13 -17 -12 -4 4 13
16 21 21 21 13z m194 -14 c3 -5 -1 -9 -9 -9 -8 0 -12 4 -9 9 3 4 7 8 9 8 2 0
6 -4 9 -8z m-367 -67 c0 -8 -4 -12 -9 -9 -5 3 -6 10 -3 15 9 13 12 11 12 -6z
m200 -317 c-3 -8 -6 -5 -6 6 -1 11 2 17 5 13 3 -3 4 -12 1 -19z"/>
<path d="M1706 1192 c-3 -5 1 -9 9 -9 8 0 12 4 9 9 -3 4 -7 8 -9 8 -2 0 -6 -4
-9 -8z"/>
<path d="M1768 1093 c6 -2 10 -8 8 -12 -3 -4 1 -8 9 -8 8 0 15 4 15 8 0 7 -26
20 -38 18 -4 0 -1 -3 6 -6z"/>
<path d="M965 960 c-3 -5 -1 -10 4 -10 6 0 11 5 11 10 0 6 -2 10 -4 10 -3 0
-8 -4 -11 -10z"/>
<path d="M570 923 c0 -7 5 -15 11 -19 8 -4 7 -9 -2 -15 -7 -4 -11 -11 -8 -14
4 -3 11 0 17 7 7 9 6 19 -4 32 -8 11 -14 15 -14 9z"/>
<path d="M1865 920 c3 -5 11 -10 16 -10 6 0 7 5 4 10 -3 6 -11 10 -16 10 -6 0
-7 -4 -4 -10z"/>
<path d="M1113 875 c-10 -11 -9 -13 6 -12 11 1 17 7 14 14 -6 16 -5 16 -20 -2z"/>
<path d="M1430 885 c0 -5 5 -17 10 -25 5 -8 10 -10 10 -5 0 6 -5 17 -10 25 -5
8 -10 11 -10 5z"/>
<path d="M806 864 c-11 -8 -16 -14 -10 -14 13 0 39 18 34 24 -3 2 -14 -2 -24
-10z"/>
<path d="M650 769 c0 -5 -4 -7 -10 -4 -5 3 -10 0 -10 -7 0 -9 -3 -9 -10 2 -9
13 -12 12 -26 -5 -8 -11 -19 -19 -24 -18 -5 2 -7 -4 -3 -13 5 -13 7 -13 14 -2
5 7 9 8 9 3 0 -6 -5 -16 -12 -23 -9 -9 -9 -12 0 -12 7 0 12 -5 12 -11 0 -6 -7
-8 -16 -5 -14 5 -15 4 -4 -9 7 -8 9 -15 4 -15 -5 0 0 -7 10 -15 11 -8 15 -15
8 -15 -6 0 -9 -7 -6 -15 4 -8 1 -15 -4 -15 -6 0 -9 9 -7 20 2 11 0 18 -5 15
-7 -4 -7 -34 0 -42 2 -2 3 -9 4 -15 1 -7 8 -12 16 -10 10 2 11 0 2 -11 -8 -10
-8 -17 -1 -24 12 -12 3 -36 -11 -28 -5 3 -12 1 -15 -5 -4 -6 -1 -9 6 -8 16 4
19 -22 6 -40 -6 -7 -7 -15 -4 -19 4 -3 2 -12 -5 -20 -6 -8 -7 -13 -2 -11 5 1
19 -4 32 -11 13 -7 30 -10 38 -7 8 3 14 0 14 -6 0 -7 6 -3 14 8 12 16 17 17
28 6 11 -11 10 -12 -4 -7 -11 5 -18 2 -18 -6 0 -7 3 -9 7 -6 3 4 13 1 21 -6
10 -8 13 -8 9 -1 -7 13 17 27 27 17 13 -14 56 -8 56 7 0 13 2 13 9 0 6 -8 7
-18 4 -24 -3 -5 -1 -6 6 -2 6 4 9 13 5 19 -3 7 2 3 11 -8 17 -20 17 -20 10 3
-7 23 -6 23 18 7 20 -13 26 -13 30 -3 3 8 6 5 7 -7 2 -17 3 -16 10 5 8 24 8
24 9 2 1 -19 3 -21 15 -10 8 7 12 17 9 21 -3 4 8 5 24 1 27 -6 27 -6 8 9 -17
14 -18 16 -3 17 9 0 20 5 24 11 4 7 0 9 -13 5 -13 -4 -20 -2 -20 8 0 9 4 13 9
10 4 -3 8 -1 8 5 0 5 -6 12 -12 14 -8 3 -6 6 5 6 9 1 17 6 17 11 0 6 -3 9 -7
9 -24 -4 -25 4 -3 17 19 11 20 14 5 9 -16 -4 -21 0 -22 17 -2 18 0 20 7 8 8
-13 10 -13 10 1 0 9 -3 19 -7 23 -15 15 -8 51 11 62 19 11 19 12 -2 18 -12 4
-22 12 -22 17 0 6 4 8 9 5 16 -10 20 21 5 42 -10 15 -11 23 -3 28 8 5 9 3 4
-7 -8 -12 -6 -12 8 0 20 16 22 22 5 19 -7 -2 -12 3 -10 10 1 8 -2 11 -8 7 -6
-3 -8 -12 -4 -18 3 -7 -3 -1 -14 12 -19 23 -20 23 -30 5 -11 -18 -11 -18 -12
1 0 17 -2 17 -10 5 -5 -8 -10 -10 -10 -5 0 6 -5 3 -10 -5 -6 -10 -10 -11 -10
-2 0 6 -5 12 -11 12 -5 0 -7 -6 -3 -12 4 -7 -2 -5 -13 5 -16 14 -23 15 -29 6
-5 -8 -3 -10 7 -4 8 5 10 4 6 0 -15 -17 -39 -14 -32 3 5 13 3 14 -6 5 -6 -6
-18 -9 -27 -6 -9 4 -13 2 -9 -4 8 -12 -11 -12 -29 0 -6 3 -14 3 -18 0 -13 -14
-38 -12 -32 3 3 8 1 14 -4 14 -6 0 -10 -5 -10 -11z m-45 -369 c3 -6 -1 -7 -9
-4 -18 7 -21 14 -7 14 6 0 13 -4 16 -10z"/>
<path d="M1181 773 c3 -20 -2 -27 -10 -14 -8 13 -12 13 -27 0 -11 -9 -15 -9
-10 -1 4 6 2 12 -3 12 -6 0 -11 -4 -11 -10 0 -5 -5 -10 -11 -10 -5 0 -7 6 -3
13 4 6 4 9 0 5 -4 -3 -8 -10 -8 -15 0 -4 -4 -16 -9 -25 -8 -14 -6 -18 8 -18
14 0 15 -2 5 -9 -7 -4 -15 -20 -16 -34 -2 -15 0 -24 5 -22 4 3 10 1 13 -4 3
-5 0 -11 -8 -14 -17 -7 -16 -28 2 -50 10 -12 10 -17 1 -23 -8 -5 -9 -3 -4 6 6
9 4 11 -4 6 -9 -6 -8 -13 5 -27 15 -17 16 -19 2 -14 -17 7 -20 -17 -3 -32 4
-4 5 -2 0 6 -5 9 -4 12 3 7 16 -10 2 -38 -16 -31 -12 4 -13 3 -2 -10 7 -8 17
-12 24 -8 6 3 6 0 -1 -8 -7 -7 -13 -23 -13 -36 0 -13 6 -23 13 -23 8 0 7 -4
-3 -11 -12 -8 -11 -9 6 -4 15 4 24 0 29 -12 6 -16 7 -17 18 -2 7 9 23 15 37
14 14 -1 25 -3 25 -5 0 -1 12 -3 28 -4 18 -1 27 3 27 14 0 13 2 13 9 0 6 -8 7
-18 4 -24 -3 -5 -1 -6 6 -2 6 4 9 13 5 19 -3 7 2 3 11 -8 17 -20 17 -20 10 3
-7 23 -7 23 19 7 19 -13 26 -14 26 -4 0 8 5 6 13 -5 12 -16 14 -16 26 -2 8 9
9 16 3 16 -6 0 -13 -6 -15 -12 -4 -10 -6 -10 -6 -1 -1 18 18 26 32 14 7 -5 19
-6 26 -2 7 5 23 6 35 4 17 -4 18 -3 6 6 -13 10 -13 12 0 21 11 7 11 10 2 10
-10 0 -10 5 -1 21 8 15 8 19 0 15 -6 -4 -11 -2 -11 3 0 6 4 11 10 11 11 0 9
28 -3 48 -5 7 -3 12 5 12 9 0 9 3 -2 10 -8 5 -11 10 -6 10 5 0 3 7 -4 15 -11
13 -10 14 2 10 10 -4 14 2 14 19 0 14 -4 22 -8 20 -4 -3 -8 0 -8 5 0 6 4 11
10 11 11 0 8 35 -3 46 -4 4 -2 13 4 21 9 9 8 13 0 13 -6 0 -11 5 -11 11 0 5 4
8 8 5 15 -9 9 19 -7 34 -13 13 -14 12 -8 -2 4 -12 2 -15 -8 -11 -8 3 -13 9
-10 13 2 4 -6 8 -20 8 -14 0 -22 -4 -20 -8 7 -11 -22 -6 -32 5 -4 4 -2 5 6 0
9 -5 12 -4 7 3 -5 9 -14 8 -31 -4 -15 -10 -25 -12 -30 -5 -3 6 -11 11 -16 11
-6 0 -7 -5 -4 -11 4 -6 -3 -5 -14 3 -18 11 -23 11 -31 -2 -6 -10 -10 -11 -10
-2 0 6 -7 12 -15 12 -8 0 -15 -5 -15 -11 0 -6 -7 -3 -16 5 -17 17 -25 20 -23
9z m-74 -98 c0 -8 -4 -12 -9 -9 -5 3 -6 10 -3 15 9 13 12 11 12 -6z m40 -307
c-3 -8 -6 -5 -6 6 -1 11 2 17 5 13 3 -3 4 -12 1 -19z"/>
<path d="M2006 685 c4 -8 11 -15 16 -15 6 0 5 6 -2 15 -7 8 -14 15 -16 15 -2
0 -1 -7 2 -15z"/>
<path d="M965 600 c-3 -5 -1 -10 4 -10 6 0 11 5 11 10 0 6 -2 10 -4 10 -3 0
-8 -4 -11 -10z"/>
<path d="M566 541 c-3 -4 1 -17 9 -27 8 -10 15 -14 15 -7 0 6 -5 15 -10 18 -6
4 -8 11 -5 16 4 5 4 9 1 9 -3 0 -7 -4 -10 -9z"/>
<path d="M1440 371 c-8 -6 -18 -7 -24 -4 -5 3 -6 1 -2 -5 5 -8 13 -9 25 -2 10
5 22 6 26 2 5 -4 5 -1 1 6 -8 14 -7 14 -26 3z"/>
<path d="M1174 362 c4 -3 14 -7 22 -8 9 -1 13 0 10 4 -4 3 -14 7 -22 8 -9 1
-13 0 -10 -4z"/>
<path d="M2845 221 c-3 -5 -2 -12 3 -15 5 -3 9 1 9 9 0 17 -3 19 -12 6z"/>
<path d="M2478 83 c7 -3 16 -2 19 1 4 3 -2 6 -13 5 -11 0 -14 -3 -6 -6z"/>
</g>
</svg>
